<svg width="46" height="46" viewBox="0 0 46 46" fill="none" xmlns="http://www.w3.org/2000/svg">
<path d="M33.125 16.675C33.125 17.35 32.7625 17.9625 32.1875 18.275L30.0125 19.45L28.1625 20.4375L24.325 22.5125C23.9125 22.7375 23.4625 22.85 23 22.85C22.5375 22.85 22.0875 22.7375 21.675 22.5125L13.8125 18.275C13.2375 17.9625 12.875 17.35 12.875 16.675C12.875 16 13.2375 15.3875 13.8125 15.075L16.275 13.75L18.2375 12.6875L21.675 10.8375C22.5 10.3875 23.5 10.3875 24.325 10.8375L32.1875 15.075C32.7625 15.3875 33.125 16 33.125 16.675Z" stroke="black" stroke-width="1.625"/>
<path d="M20.3749 23.9877L13.0624 20.3377C12.4999 20.0502 11.8499 20.0877 11.3124 20.4127C10.7749 20.7377 10.4624 21.3127 10.4624 21.9377V28.8502C10.4624 30.0502 11.1249 31.1252 12.1999 31.6627L19.5124 35.3127C19.7624 35.4377 20.0374 35.5002 20.3124 35.5002C20.6374 35.5002 20.9624 35.4127 21.2499 35.2252C21.7874 34.9002 22.0999 34.3252 22.0999 33.7002V26.7877C22.1124 25.6002 21.4499 24.5252 20.3749 23.9877Z" stroke="black" stroke-width="1.625"/>
<path d="M35.5375 21.9375V28.85C35.5375 30.0375 34.875 31.1125 33.8 31.65L26.4875 35.3125C26.2375 35.4375 25.9625 35.5 25.6875 35.5C25.3625 35.5 25.0375 35.4125 24.7375 35.225C24.2125 34.9 23.8875 34.325 23.8875 33.7V26.8C23.8875 25.6 24.55 24.525 25.625 23.9875L28.3125 22.65L30.1875 21.7125L32.9375 20.3375C33.5 20.05 34.15 20.075 34.6875 20.4125C35.2125 20.7375 35.5375 21.3125 35.5375 21.9375Z" stroke="black" stroke-width="1.625"/>
</svg>
