<svg width="46" height="46" viewBox="0 0 46 46" fill="none" xmlns="http://www.w3.org/2000/svg">
<path d="M32.7125 25.1875H27.6625C25.15 25.1875 23.9375 24.025 23.9375 21.625V13.125C23.9375 10.725 25.1625 9.5625 27.6625 9.5625H32.7125C35.225 9.5625 36.4375 10.725 36.4375 13.125V21.625C36.4375 24.025 35.2125 25.1875 32.7125 25.1875ZM27.6625 11.4375C26.075 11.4375 25.8125 11.8625 25.8125 13.125V21.625C25.8125 22.8875 26.075 23.3125 27.6625 23.3125H32.7125C34.3 23.3125 34.5625 22.8875 34.5625 21.625V13.125C34.5625 11.8625 34.3 11.4375 32.7125 11.4375H27.6625V11.4375Z" fill="black"/>
<path d="M32.7125 36.4375H27.6625C25.15 36.4375 23.9375 35.275 23.9375 32.875V30.625C23.9375 28.225 25.1625 27.0625 27.6625 27.0625H32.7125C35.225 27.0625 36.4375 28.225 36.4375 30.625V32.875C36.4375 35.275 35.2125 36.4375 32.7125 36.4375ZM27.6625 28.9375C26.075 28.9375 25.8125 29.3625 25.8125 30.625V32.875C25.8125 34.1375 26.075 34.5625 27.6625 34.5625H32.7125C34.3 34.5625 34.5625 34.1375 34.5625 32.875V30.625C34.5625 29.3625 34.3 28.9375 32.7125 28.9375H27.6625Z" fill="black"/>
<path d="M18.3375 36.4375H13.2875C10.775 36.4375 9.5625 35.275 9.5625 32.875V24.375C9.5625 21.975 10.7875 20.8125 13.2875 20.8125H18.3375C20.85 20.8125 22.0625 21.975 22.0625 24.375V32.875C22.0625 35.275 20.8375 36.4375 18.3375 36.4375ZM13.2875 22.6875C11.7 22.6875 11.4375 23.1125 11.4375 24.375V32.875C11.4375 34.1375 11.7 34.5625 13.2875 34.5625H18.3375C19.925 34.5625 20.1875 34.1375 20.1875 32.875V24.375C20.1875 23.1125 19.925 22.6875 18.3375 22.6875H13.2875V22.6875Z" fill="black"/>
<path d="M18.3375 18.9375H13.2875C10.775 18.9375 9.5625 17.775 9.5625 15.375V13.125C9.5625 10.725 10.7875 9.5625 13.2875 9.5625H18.3375C20.85 9.5625 22.0625 10.725 22.0625 13.125V15.375C22.0625 17.775 20.8375 18.9375 18.3375 18.9375ZM13.2875 11.4375C11.7 11.4375 11.4375 11.8625 11.4375 13.125V15.375C11.4375 16.6375 11.7 17.0625 13.2875 17.0625H18.3375C19.925 17.0625 20.1875 16.6375 20.1875 15.375V13.125C20.1875 11.8625 19.925 11.4375 18.3375 11.4375H13.2875V11.4375Z" fill="black"/>
</svg>
