<svg width="46" height="46" viewBox="0 0 46 46" fill="none" xmlns="http://www.w3.org/2000/svg">
<path d="M23 10.0625C23.2364 10.0625 23.4375 10.2636 23.4375 10.5V16.9443L24.291 16.0908L25.1914 15.1914C25.3586 15.0242 25.6414 15.0242 25.8086 15.1914C25.9758 15.3586 25.9758 15.6414 25.8086 15.8086L23.3086 18.3086C23.2288 18.3884 23.1069 18.4375 23 18.4375C22.9498 18.4375 22.9005 18.4293 22.8232 18.3984L22.8203 18.3975L22.7666 18.3711C22.6467 18.2996 22.5625 18.1589 22.5625 18V10.5C22.5625 10.2636 22.7636 10.0625 23 10.0625Z" stroke="black"/>
<path d="M20.1906 15.1904C20.3577 15.0233 20.6414 15.0235 20.8087 15.1904L23.3087 17.6904C23.476 17.8577 23.476 18.1414 23.3087 18.3086C23.22 18.3973 23.1121 18.4375 23.0001 18.4375C22.8881 18.4375 22.7793 18.3974 22.6906 18.3086L20.1906 15.8086C20.0236 15.6413 20.0234 15.3576 20.1906 15.1904Z" stroke="black"/>
<path d="M29.2754 22.5625C32.1672 22.5626 33.443 23.328 34.0518 24.2598C34.6972 25.2479 34.7129 26.5679 34.7129 28V29.25C34.7004 31.5582 34.1112 33.2061 33.0342 34.2803C31.957 35.3546 30.3088 35.9375 28 35.9375H18C14.4831 35.9375 12.895 35.0067 12.1299 33.8359C11.328 32.6088 11.3125 30.976 11.3125 29.25V28C11.3125 26.5678 11.3281 25.2479 11.9736 24.2598C12.5824 23.328 13.8579 22.5625 16.75 22.5625C17.4527 22.5625 17.8969 22.6483 18.2432 22.7822C18.5906 22.9166 18.8717 23.111 19.2529 23.3936C19.2639 23.403 19.2734 23.4117 19.2812 23.418C19.2898 23.4248 19.2983 23.4304 19.3037 23.4346L19.3047 23.4355L19.3242 23.4561L20.5986 24.8057C21.8709 26.1519 24.1535 26.1519 25.4258 24.8057L26.6953 23.4619C26.7308 23.4265 26.7453 23.4135 26.7627 23.4004L26.7646 23.3984C27.1486 23.1074 27.4316 22.9119 27.7803 22.7783C28.126 22.6459 28.5707 22.5625 29.2754 22.5625ZM29.25 23.4375C28.789 23.4375 28.4476 23.4648 28.1387 23.5713C27.8286 23.6782 27.5888 23.8534 27.3262 24.0488L27.291 24.0752L27.2607 24.1074L26.0498 25.3936C25.2433 26.2449 24.1613 26.7129 23 26.7129C21.8387 26.7129 20.7567 26.2449 19.9502 25.3936L18.7393 24.1074L18.709 24.0752L18.6738 24.0488L18.4795 23.9072C18.2868 23.7703 18.094 23.6515 17.8613 23.5713C17.5524 23.4648 17.211 23.4375 16.75 23.4375C14.7221 23.4375 13.4668 23.7422 12.7979 24.6211C12.4681 25.0544 12.3235 25.5748 12.2549 26.1279C12.1868 26.6766 12.1875 27.3131 12.1875 28V29.25C12.1875 30.0969 12.1867 30.8917 12.2744 31.5879C12.3628 32.2885 12.546 32.9408 12.9492 33.4873C13.7694 34.5989 15.331 35.0625 18 35.0625H28C29.9196 35.0625 31.4075 34.655 32.4062 33.6562C33.405 32.6575 33.8125 31.1696 33.8125 29.25V28C33.8125 27.3131 33.8132 26.6766 33.7451 26.1279C33.6765 25.5748 33.5319 25.0544 33.2021 24.6211C32.5332 23.7422 31.2779 23.4375 29.25 23.4375Z" stroke="black"/>
<path d="M17.96 12.6226H18.0488C18.2499 12.6436 18.4187 12.8048 18.4395 13.0229V13.1118C18.4212 13.284 18.3011 13.4328 18.1299 13.4849L18.04 13.5024C16.5507 13.6376 15.603 14.0211 15.1143 14.8931C14.8839 15.3041 14.7835 15.7792 14.7354 16.2837C14.6873 16.787 14.6875 17.3674 14.6875 18.0005V23.0005C14.6873 23.2367 14.4862 23.438 14.25 23.438C14.0138 23.438 13.8127 23.2367 13.8125 23.0005V18.0005C13.8125 16.7602 13.8231 15.5307 14.332 14.5474C14.8089 13.626 15.7807 12.8298 17.96 12.6226Z" stroke="black"/>
<path d="M28.0413 12.6216L28.053 12.6226C30.2321 12.8299 31.2041 13.626 31.6809 14.5474C32.1899 15.5307 32.2004 16.7602 32.2004 18.0005V22.9878C32.1944 23.236 31.9842 23.4379 31.7502 23.438C31.514 23.438 31.3129 23.2368 31.3127 23.0005V18.0005C31.3127 17.3674 31.3129 16.7871 31.2649 16.2837C31.2167 15.779 31.1161 15.3037 30.886 14.8921C30.3978 14.0192 29.4509 13.6312 27.9602 13.4897H27.9612C27.7275 13.4669 27.5489 13.2529 27.5725 13.0112C27.5968 12.7629 27.8092 12.594 28.0413 12.6216Z" stroke="black"/>
</svg>
